{
    "asset" : {
        "generator" : "Khronos glTF Blender I/O v1.1.46",
        "version" : "2.0"
    },
    "scene" : 0,
    "scenes" : [
        {
            "extras" : {
                "glTF2ExportSettings" : {
                    "export_animations" : 1,
                    "export_apply" : 1,
                    "export_extras" : 1,
                    "export_format" : "GLTF_EMBEDDED",
                    "export_lights" : 0,
                    "export_morph" : 0,
                    "export_selected" : 1,
                    "export_tangents" : 0
                }
            },
            "name" : "Scene",
            "nodes" : [
                0,
                1,
                2
            ]
        }
    ],
    "nodes" : [
        {
            "mesh" : 0,
            "name" : "Cube.001_Cube.007",
            "rotation" : [
                0.7071067690849304,
                0,
                0,
                0.7071067690849304
            ],
            "scale" : [
                0.050000011920928955,
                0.050000011920928955,
                0.050000011920928955
            ],
            "translation" : [
                0,
                0.6441501975059509,
                2.0259809494018555
            ]
        },
        {
            "mesh" : 1,
            "name" : "Plane.001",
            "rotation" : [
                0.7071067690849304,
                0,
                0,
                0.7071067690849304
            ],
            "scale" : [
                0.050000011920928955,
                0.050000011920928955,
                0.050000011920928955
            ],
            "translation" : [
                0.7505836486816406,
                0.6441501975059509,
                2.0259809494018555
            ]
        },
        {
            "mesh" : 2,
            "name" : "Plane.002",
            "rotation" : [
                0.7071067690849304,
                0,
                0,
                0.7071067690849304
            ],
            "scale" : [
                0.050000011920928955,
                0.050000011920928955,
                0.050000011920928955
            ],
            "translation" : [
                0,
                0.6441501975059509,
                2.0259809494018555
            ]
        }
    ],
    "materials" : [
        {
            "doubleSided" : true,
            "emissiveFactor" : [
                0,
                0,
                0
            ],
            "name" : "Material.005",
            "pbrMetallicRoughness" : {
                "baseColorTexture" : {
                    "index" : 0,
                    "texCoord" : 0
                },
                "metallicFactor" : 0,
                "roughnessFactor" : 0.6732679605484009
            }
        },
        {
            "doubleSided" : true,
            "name" : "Material.006",
            "pbrMetallicRoughness" : {}
        },
        {
            "doubleSided" : true,
            "emissiveFactor" : [
                0,
                0,
                0
            ],
            "name" : "Material.007",
            "pbrMetallicRoughness" : {
                "baseColorTexture" : {
                    "index" : 1,
                    "texCoord" : 0
                },
                "metallicFactor" : 0,
                "roughnessFactor" : 0.6732679605484009
            }
        },
        {
            "doubleSided" : true,
            "name" : "Material.009",
            "pbrMetallicRoughness" : {}
        },
        {
            "doubleSided" : true,
            "emissiveFactor" : [
                0,
                0,
                0
            ],
            "name" : "Material.008",
            "pbrMetallicRoughness" : {
                "baseColorTexture" : {
                    "index" : 2,
                    "texCoord" : 0
                },
                "metallicFactor" : 0,
                "roughnessFactor" : 0.6732679605484009
            }
        }
    ],
    "meshes" : [
        {
            "name" : "Cube.001_Cube.007",
            "primitives" : [
                {
                    "attributes" : {
                        "POSITION" : 0,
                        "NORMAL" : 1,
                        "TEXCOORD_0" : 2
                    },
                    "indices" : 3,
                    "material" : 0
                }
            ]
        },
        {
            "name" : "Plane.001",
            "primitives" : [
                {
                    "attributes" : {
                        "POSITION" : 4,
                        "NORMAL" : 5,
                        "TEXCOORD_0" : 6
                    },
                    "indices" : 7,
                    "material" : 1
                },
                {
                    "attributes" : {
                        "POSITION" : 8,
                        "NORMAL" : 9,
                        "TEXCOORD_0" : 10
                    },
                    "indices" : 11,
                    "material" : 2
                }
            ]
        },
        {
            "name" : "Plane.002",
            "primitives" : [
                {
                    "attributes" : {
                        "POSITION" : 12,
                        "NORMAL" : 13,
                        "TEXCOORD_0" : 14
                    },
                    "indices" : 7,
                    "material" : 3
                },
                {
                    "attributes" : {
                        "POSITION" : 15,
                        "NORMAL" : 16,
                        "TEXCOORD_0" : 17
                    },
                    "indices" : 11,
                    "material" : 4
                }
            ]
        }
    ],
    "textures" : [
        {
            "source" : 0
        },
        {
            "source" : 0
        },
        {
            "source" : 0
        }
    ],
    "images" : [
        {
            "bufferView" : 4,
            "mimeType" : "image/jpeg",
            "name" : "texture"
        }
    ],
    "accessors" : [
        {
            "bufferView" : 0,
            "componentType" : 5126,
            "count" : 3208,
            "max" : [
                15.52436637878418,
                0.42535200715065,
                -0.09734900295734406
            ],
            "min" : [
                -15.80480670928955,
                -1.0595769882202148,
                -29.26314353942871
            ],
            "type" : "VEC3"
        },
        {
            "bufferView" : 1,
            "componentType" : 5126,
            "count" : 3208,
            "type" : "VEC3"
        },
        {
            "bufferView" : 2,
            "componentType" : 5126,
            "count" : 3208,
            "type" : "VEC2"
        },
        {
            "bufferView" : 3,
            "componentType" : 5123,
            "count" : 6504,
            "type" : "SCALAR"
        },
        {
            "bufferView" : 5,
            "componentType" : 5126,
            "count" : 8,
            "max" : [
                -0.8272669911384583,
                -0.7486879825592041,
                -2.016592025756836
            ],
            "min" : [
                -13.895744323730469,
                -0.8311640024185181,
                -26.850513458251953
            ],
            "type" : "VEC3"
        },
        {
            "bufferView" : 6,
            "componentType" : 5126,
            "count" : 8,
            "type" : "VEC3"
        },
        {
            "bufferView" : 7,
            "componentType" : 5126,
            "count" : 8,
            "type" : "VEC2"
        },
        {
            "bufferView" : 8,
            "componentType" : 5123,
            "count" : 12,
            "type" : "SCALAR"
        },
        {
            "bufferView" : 9,
            "componentType" : 5126,
            "count" : 895,
            "max" : [
                -0.701475977897644,
                -0.5034160017967224,
                -1.286769986152649
            ],
            "min" : [
                -14.636420249938965,
                -1.0119450092315674,
                -27.60540008544922
            ],
            "type" : "VEC3"
        },
        {
            "bufferView" : 10,
            "componentType" : 5126,
            "count" : 895,
            "type" : "VEC3"
        },
        {
            "bufferView" : 11,
            "componentType" : 5126,
            "count" : 895,
            "type" : "VEC2"
        },
        {
            "bufferView" : 12,
            "componentType" : 5123,
            "count" : 1536,
            "type" : "SCALAR"
        },
        {
            "bufferView" : 13,
            "componentType" : 5126,
            "count" : 8,
            "max" : [
                -0.8272669911384583,
                -0.7486879825592041,
                -2.016592025756836
            ],
            "min" : [
                -13.895744323730469,
                -0.8311640024185181,
                -26.850513458251953
            ],
            "type" : "VEC3"
        },
        {
            "bufferView" : 14,
            "componentType" : 5126,
            "count" : 8,
            "type" : "VEC3"
        },
        {
            "bufferView" : 15,
            "componentType" : 5126,
            "count" : 8,
            "type" : "VEC2"
        },
        {
            "bufferView" : 16,
            "componentType" : 5126,
            "count" : 895,
            "max" : [
                -0.701475977897644,
                -0.5034160017967224,
                -1.286769986152649
            ],
            "min" : [
                -14.636420249938965,
                -1.0119450092315674,
                -27.60540008544922
            ],
            "type" : "VEC3"
        },
        {
            "bufferView" : 17,
            "componentType" : 5126,
            "count" : 895,
            "type" : "VEC3"
        },
        {
            "bufferView" : 18,
            "componentType" : 5126,
            "count" : 895,
            "type" : "VEC2"
        }
    ],
    "bufferViews" : [
        {
            "buffer" : 0,
            "byteLength" : 38496,
            "byteOffset" : 0
        },
        {
            "buffer" : 0,
            "byteLength" : 38496,
            "byteOffset" : 38496
        },
        {
            "buffer" : 0,
            "byteLength" : 25664,
            "byteOffset" : 76992
        },
        {
            "buffer" : 0,
            "byteLength" : 13008,
            "byteOffset" : 102656
        },
        {
            "buffer" : 0,
            "byteLength" : 810471,
            "byteOffset" : 115664
        },
        {
            "buffer" : 0,
            "byteLength" : 96,
            "byteOffset" : 926136
        },
        {
            "buffer" : 0,
            "byteLength" : 96,
            "byteOffset" : 926232
        },
        {
            "buffer" : 0,
            "byteLength" : 64,
            "byteOffset" : 926328
        },
        {
            "buffer" : 0,
            "byteLength" : 24,
            "byteOffset" : 926392
        },
        {
            "buffer" : 0,
            "byteLength" : 10740,
            "byteOffset" : 926416
        },
        {
            "buffer" : 0,
            "byteLength" : 10740,
            "byteOffset" : 937156
        },
        {
            "buffer" : 0,
            "byteLength" : 7160,
            "byteOffset" : 947896
        },
        {
            "buffer" : 0,
            "byteLength" : 3072,
            "byteOffset" : 955056
        },
        {
            "buffer" : 0,
            "byteLength" : 96,
            "byteOffset" : 958128
        },
        {
            "buffer" : 0,
            "byteLength" : 96,
            "byteOffset" : 958224
        },
        {
            "buffer" : 0,
            "byteLength" : 64,
            "byteOffset" : 958320
        },
        {
            "buffer" : 0,
            "byteLength" : 10740,
            "byteOffset" : 958384
        },
        {
            "buffer" : 0,
            "byteLength" : 10740,
            "byteOffset" : 969124
        },
        {
            "buffer" : 0,
            "byteLength" : 7160,
            "byteOffset" : 979864
        }
    ],
    "buffers" : [
        {
            "byteLength" : 987024,
            "uri" : "data:application/octet-stream;base64,"
        }
    ]
}
